<svg width="28" height="24" viewBox="0 0 28 24" fill="none" xmlns="http://www.w3.org/2000/svg">
<path fill-rule="evenodd" clip-rule="evenodd" d="M14 5.33333H27.3333V24H0.666664V0H14V5.33333ZM3.33333 21.3333H6V18.6667H3.33333V21.3333ZM6 16H3.33333V13.3333H6V16ZM3.33333 10.6667H6V8H3.33333V10.6667ZM6 5.33333H3.33333V2.66667H6V5.33333ZM8.66666 21.3333H11.3333V18.6667H8.66666V21.3333ZM11.3333 16H8.66666V13.3333H11.3333V16ZM8.66666 10.6667H11.3333V8H8.66666V10.6667ZM11.3333 5.33333H8.66666V2.66667H11.3333V5.33333ZM24.6667 21.3333V8H14V10.6667H16.6667V13.3333H14V16H16.6667V18.6667H14V21.3333H24.6667ZM22 10.6667H19.3333V13.3333H22V10.6667ZM19.3333 16H22V18.6667H19.3333V16Z" fill="#204883"/>
</svg>
