<svg width="32" height="32" viewBox="0 0 32 32" fill="none" xmlns="http://www.w3.org/2000/svg">
<path fill-rule="evenodd" clip-rule="evenodd" d="M26.6667 5.33337H5.33332C3.85332 5.33337 2.67999 6.52004 2.67999 8.00004L2.66666 24C2.66666 25.48 3.85332 26.6667 5.33332 26.6667H26.6667C28.1467 26.6667 29.3333 25.48 29.3333 24V8.00004C29.3333 6.52004 28.1467 5.33337 26.6667 5.33337ZM14.6667 22.6667H17.3333V21.3334H18.6667C19.4 21.3334 20 20.7334 20 20V16C20 15.2667 19.4 14.6667 18.6667 14.6667H14.6667V13.3334H20V10.6667H17.3333V9.33337H14.6667V10.6667H13.3333C12.6 10.6667 12 11.2667 12 12V16C12 16.7334 12.6 17.3334 13.3333 17.3334H17.3333V18.6667H12V21.3334H14.6667V22.6667ZM5.33332 24H26.6667V8.00004H5.33332V24Z" fill="#204883"/>
</svg>
