<svg width="32" height="32" viewBox="0 0 32 32" fill="none" xmlns="http://www.w3.org/2000/svg">
<path fill-rule="evenodd" clip-rule="evenodd" d="M26.6667 8.00004H16L13.3333 5.33337H5.33334C3.86667 5.33337 2.68001 6.53337 2.68001 8.00004L2.66667 24C2.66667 25.4667 3.86667 26.6667 5.33334 26.6667H26.6667C28.1333 26.6667 29.3333 25.4667 29.3333 24V10.6667C29.3333 9.20004 28.1333 8.00004 26.6667 8.00004ZM20 12C21.4667 12 22.6667 13.2 22.6667 14.6667C22.6667 16.1334 21.4667 17.3334 20 17.3334C18.5333 17.3334 17.3333 16.1334 17.3333 14.6667C17.3333 13.2 18.5333 12 20 12ZM14.6667 21.3334V22.6667H25.3333V21.3334C25.3333 19.56 21.7733 18.6667 20 18.6667C18.2267 18.6667 14.6667 19.56 14.6667 21.3334Z" fill="#204883"/>
</svg>
