<svg width="32" height="32" viewBox="0 0 32 32" fill="none" xmlns="http://www.w3.org/2000/svg">
<path fill-rule="evenodd" clip-rule="evenodd" d="M14.6533 10.6666C14.6533 12.88 12.88 14.6666 10.6667 14.6666C8.45333 14.6666 6.66667 12.88 6.66667 10.6666C6.66667 8.45329 8.45333 6.66663 10.6667 6.66663C12.88 6.66663 14.6533 8.45329 14.6533 10.6666ZM25.32 10.6666C25.32 12.88 23.5467 14.6666 21.3333 14.6666C19.12 14.6666 17.3333 12.88 17.3333 10.6666C17.3333 8.45329 19.12 6.66663 21.3333 6.66663C23.5467 6.66663 25.32 8.45329 25.32 10.6666ZM10.6667 17.3333C7.56 17.3333 1.33333 18.8933 1.33333 22V25.3333H20V22C20 18.8933 13.7733 17.3333 10.6667 17.3333ZM20.04 17.4C20.5067 17.36 20.9467 17.3333 21.3333 17.3333C24.44 17.3333 30.6667 18.8933 30.6667 22V25.3333H22.6667V22C22.6667 20.0266 21.5867 18.52 20.04 17.4Z" fill="#204883"/>
</svg>
