<svg width="32" height="32" viewBox="0 0 32 32" fill="none" xmlns="http://www.w3.org/2000/svg">
<path fill-rule="evenodd" clip-rule="evenodd" d="M27.8 6.02667L29.2 11.8533C29.5333 13.2133 29.2267 14.6133 28.3733 15.7067C28.3018 15.7961 28.2123 15.8795 28.1248 15.961C28.0819 16.001 28.0395 16.0405 28 16.08V25.3333C28 26.8 26.8 28 25.3333 28H6.66666C5.19999 28 3.99999 26.8 3.99999 25.3333V16.08C3.95199 16.0267 3.89973 15.9776 3.84746 15.9285C3.76906 15.8549 3.69066 15.7813 3.62666 15.6933C2.77333 14.6 2.47999 13.2133 2.79999 11.8533L4.19999 6.02667C4.47999 4.84 5.53333 4 6.73333 4H25.2533C26.4667 4 27.5067 4.82667 27.8 6.02667ZM26.6133 12.48L25.2133 6.65333L22.64 6.66667L23.4133 13.1467C23.5067 14.0133 24.2133 14.6667 25.0267 14.6667C25.6933 14.6667 26.0933 14.28 26.28 14.04C26.6267 13.6 26.7467 13.04 26.6133 12.48ZM17.3333 6.66667H19.9467L20.6667 12.6933C20.7333 13.2133 20.5733 13.7333 20.2267 14.12C19.9333 14.4667 19.5067 14.6667 18.96 14.6667C18.0667 14.6667 17.3333 13.88 17.3333 12.92V6.66667ZM12.0533 6.66667L11.32 12.6933C11.2667 13.2133 11.4267 13.7333 11.76 14.12C12.08 14.4667 12.4933 14.6667 12.9467 14.6667C13.9333 14.6667 14.6667 13.88 14.6667 12.92V6.66667H12.0533ZM5.38666 12.48L6.73333 6.66667H9.35999L8.58666 13.1467C8.47999 14.0133 7.78666 14.6667 6.97333 14.6667C6.31999 14.6667 5.90666 14.28 5.73333 14.04C5.37333 13.6133 5.25333 13.04 5.38666 12.48ZM6.66666 17.2933V25.3333H25.3467V17.2933C25.3092 17.298 25.2734 17.3043 25.2381 17.3106C25.1729 17.3221 25.1092 17.3333 25.04 17.3333C23.88 17.3333 22.8267 16.8533 22.0533 16.0667C21.2533 16.8667 20.1867 17.3333 19.0667 17.3333C17.8667 17.3333 16.8 16.8533 16.0133 16.0933C15.24 16.8533 14.2 17.3333 13.04 17.3333C11.8267 17.3333 10.76 16.8667 9.95999 16.0667C9.18666 16.8533 8.13333 17.3333 6.97333 17.3333C6.90409 17.3333 6.84047 17.3221 6.77517 17.3106C6.73987 17.3043 6.70409 17.298 6.66666 17.2933Z" fill="#204883"/>
</svg>
