<svg width="32" height="32" viewBox="0 0 32 32" fill="none" xmlns="http://www.w3.org/2000/svg">
<path fill-rule="evenodd" clip-rule="evenodd" d="M2.66666 16C2.66666 8.63996 8.63999 2.66663 16 2.66663C23.36 2.66663 29.3333 8.63996 29.3333 16C29.3333 23.36 23.36 29.3333 16 29.3333C8.63999 29.3333 2.66666 23.36 2.66666 16ZM17.88 26.6666V24.12C20.2 23.68 22.0267 22.3466 22.04 19.9066C22.04 16.5466 19.16 15.3866 16.4667 14.6933C13.7733 14 12.9067 13.2666 12.9067 12.1466C12.9067 10.8666 14.1067 9.95996 16.1067 9.95996C18.2133 9.95996 19 10.9733 19.0667 12.4533H21.68C21.6 10.4133 20.36 8.53329 17.88 7.93329V5.33329H14.32V7.90663C12.0267 8.39996 10.1733 9.89329 10.1733 12.1866C10.1733 14.92 12.44 16.28 15.7467 17.08C18.72 17.7866 19.3067 18.8266 19.3067 19.9333C19.3067 20.7466 18.72 22.0533 16.1067 22.0533C13.6667 22.0533 12.7067 20.96 12.5733 19.56H9.95999C10.1067 22.1466 12.04 23.6133 14.32 24.0933V26.6666H17.88Z" fill="#204883"/>
</svg>
