<svg width="32" height="32" viewBox="0 0 32 32" fill="none" xmlns="http://www.w3.org/2000/svg">
<path fill-rule="evenodd" clip-rule="evenodd" d="M26.6667 10.6666V26.12L21.56 21C22.2533 19.9466 22.6667 18.6933 22.6667 17.3333C22.6667 13.6533 19.68 10.6666 16 10.6666C12.32 10.6666 9.33334 13.6533 9.33334 17.3333C9.33334 21.0133 12.32 24 16 24C17.36 24 18.6133 23.5866 19.68 22.8933L25.5867 28.8C25.1333 29.1333 24.6 29.3333 24 29.3333H7.98668C6.52001 29.3333 5.33334 28.1333 5.33334 26.6666L5.34668 5.33329C5.34668 3.86663 6.53334 2.66663 8.00001 2.66663H18.6667L26.6667 10.6666ZM16 21.3333C13.7867 21.3333 12 19.5466 12 17.3333C12 15.12 13.7867 13.3333 16 13.3333C18.2133 13.3333 20 15.12 20 17.3333C20 19.5466 18.2133 21.3333 16 21.3333Z" fill="#204883"/>
</svg>
